<svg width="5189" height="990" viewBox="0 0 5189 990" fill="none" xmlns="http://www.w3.org/2000/svg">
<path d="M120 360H60V720H120V360Z" fill="black"/>
<path d="M540 360H120V420H540V360Z" fill="black"/>
<path d="M600 360H540V720H600V360Z" fill="black"/>
<path d="M540 720H480V780H540V720Z" fill="black"/>
<path d="M720 780H660V900H720V780Z" fill="black"/>
<path d="M720 420H600V480H720V420Z" fill="black"/>
<path d="M660 600H600V660H660V600Z" fill="black"/>
<path d="M720 480H660V660H720V480Z" fill="black"/>
<path d="M660 900H60V960H660V900Z" fill="black"/>
<path d="M60 840H0V900H60V840Z" fill="black"/>
<path d="M540 780H180V840H540V780Z" fill="black"/>
<path d="M180 720H120V780H180V720Z" fill="black"/>
<path d="M660 780H540V840H660V780Z" fill="black"/>
<path d="M180 780H0V840H180V780Z" fill="black"/>
<path d="M240 240H180V300H240V240Z" fill="black"/>
<path d="M420 240H360V300H420V240Z" fill="black"/>
<path d="M600 240H540V300H600V240Z" fill="black"/>
<path d="M240 180H180V240H240V180Z" fill="black"/>
<path d="M420 180H360V240H420V180Z" fill="black"/>
<path d="M600 180H540V240H600V180Z" fill="black"/>
<path d="M180 120H120V180H180V120Z" fill="black"/>
<path d="M360 120H300V180H360V120Z" fill="black"/>
<path d="M540 120H480V180H540V120Z" fill="black"/>
<path d="M180 60H120V120H180V60Z" fill="black"/>
<path d="M360 60H300V120H360V60Z" fill="black"/>
<path d="M540 60H480V120H540V60Z" fill="black"/>
<path d="M240 0H180V60H240V0Z" fill="black"/>
<path d="M420 0H360V60H420V0Z" fill="black"/>
<path d="M600 0H540V60H600V0Z" fill="black"/>
<path d="M1221.68 821.25C1167.68 821.25 1121.8 809.375 1084.05 785.625C1046.3 761.875 1017.43 728.875 997.428 686.625C977.678 644.375 967.803 595.5 967.803 540C967.803 484.5 977.678 435.625 997.428 393.375C1017.43 351.125 1046.3 318.125 1084.05 294.375C1121.8 270.625 1167.68 258.75 1221.68 258.75C1275.43 258.75 1321.18 270.625 1358.93 294.375C1396.93 318.125 1425.8 351.125 1445.55 393.375C1465.55 435.625 1475.55 484.5 1475.55 540C1475.55 595.5 1465.55 644.375 1445.55 686.625C1425.8 728.875 1396.93 761.875 1358.93 785.625C1321.18 809.375 1275.43 821.25 1221.68 821.25ZM1221.68 751.5C1260.68 751.75 1293.18 743 1319.18 725.25C1345.43 707.5 1365.05 682.75 1378.05 651C1391.05 619 1397.55 582 1397.55 540C1397.55 498 1391.05 461.25 1378.05 429.75C1365.05 398 1345.43 373.25 1319.18 355.5C1293.18 337.75 1260.68 328.75 1221.68 328.5C1182.43 328.25 1149.8 337 1123.8 354.75C1098.05 372.25 1078.55 397 1065.3 429C1052.3 461 1045.68 498 1045.43 540C1045.43 582 1051.93 618.875 1064.93 650.625C1077.93 682.125 1097.43 706.75 1123.43 724.5C1149.68 742.25 1182.43 751.25 1221.68 751.5ZM1520.41 810L1520.78 270H1595.03V600L1758.91 405H1852.66L1680.16 607.5L1871.78 810H1770.91L1595.03 615V810H1520.41ZM1891.71 810V731.25H1970.46V810H1891.71ZM2058.44 810V270H2401.94V339.375H2131.94V498.375H2356.94V567.75H2131.94V740.625H2401.94V810H2058.44ZM2576.78 821.25C2546.78 821.25 2521.53 815.75 2501.03 804.75C2480.78 793.5 2465.41 778.75 2454.91 760.5C2444.66 742 2439.53 721.875 2439.53 700.125C2439.53 679.375 2443.28 661.25 2450.78 645.75C2458.53 630 2469.66 616.875 2484.16 606.375C2498.66 595.625 2516.28 587 2537.03 580.5C2555.28 575.25 2576.03 570.625 2599.28 566.625C2622.53 562.625 2646.53 559 2671.28 555.75C2696.28 552.5 2720.41 549.125 2743.66 545.625L2717.41 560.625C2717.91 527.125 2710.91 502.25 2696.41 486C2682.16 469.75 2657.41 461.625 2622.16 461.625C2599.41 461.625 2579.03 466.875 2561.03 477.375C2543.03 487.875 2530.41 505 2523.16 528.75L2454.53 507.75C2464.28 472.5 2483.16 444.75 2511.16 424.5C2539.16 404 2576.41 393.75 2622.91 393.75C2659.16 393.75 2690.66 400.125 2717.41 412.875C2744.16 425.625 2763.53 445.25 2775.53 471.75C2781.78 484.75 2785.66 498.625 2787.16 513.375C2788.66 528.125 2789.41 543.625 2789.41 559.875V810H2724.53V715.5L2738.03 726C2722.03 757.75 2700.66 781.625 2673.91 797.625C2647.41 813.375 2615.03 821.25 2576.78 821.25ZM2588.78 760.875C2612.03 760.875 2631.91 756.75 2648.41 748.5C2665.16 740.25 2678.66 729.625 2688.91 716.625C2699.16 703.375 2705.78 689.375 2708.78 674.625C2712.78 662.625 2715.03 649 2715.53 633.75C2716.03 618.5 2716.28 606.625 2716.28 598.125L2741.03 607.5C2717.53 611 2695.41 614.25 2674.66 617.25C2654.16 620 2635.16 622.875 2617.66 625.875C2600.41 628.875 2584.91 632.375 2571.16 636.375C2560.41 640.125 2550.53 644.75 2541.53 650.25C2532.53 655.5 2525.41 662.125 2520.16 670.125C2514.91 678.125 2512.28 687.875 2512.28 699.375C2512.28 710.125 2514.91 720.25 2520.16 729.75C2525.66 739 2534.03 746.5 2545.28 752.25C2556.53 758 2571.03 760.875 2588.78 760.875ZM3010.96 820.875C2961.96 820.875 2921.96 810.125 2890.96 788.625C2860.21 767.125 2841.34 737 2834.34 698.25L2909.34 686.625C2914.59 707.875 2926.59 724.75 2945.34 737.25C2964.09 749.75 2987.46 756 3015.46 756C3041.46 756 3061.84 750.75 3076.59 740.25C3091.34 729.5 3098.71 714.875 3098.71 696.375C3098.71 685.625 3096.21 676.875 3091.21 670.125C3086.21 663.375 3075.71 657.125 3059.71 651.375C3043.71 645.375 3019.59 638 2987.34 629.25C2952.09 620 2924.21 610.25 2903.71 600C2883.46 589.75 2868.96 577.75 2860.21 564C2851.46 550.25 2847.09 533.5 2847.09 513.75C2847.09 489.75 2853.59 468.75 2866.59 450.75C2879.84 432.5 2898.09 418.5 2921.34 408.75C2944.84 398.75 2972.34 393.75 3003.84 393.75C3034.84 393.75 3062.46 398.625 3086.71 408.375C3110.96 418.125 3130.46 432 3145.21 450C3160.21 467.75 3169.21 488.625 3172.21 512.625L3097.21 526.125C3094.21 505.625 3084.46 489.5 3067.96 477.75C3051.71 466 3030.46 459.625 3004.21 458.625C2979.46 457.625 2959.34 461.875 2943.84 471.375C2928.34 480.875 2920.59 493.875 2920.59 510.375C2920.59 519.625 2923.46 527.5 2929.21 534C2935.21 540.5 2946.46 546.75 2962.96 552.75C2979.46 558.75 3003.46 565.75 3034.96 573.75C3069.71 582.75 3097.21 592.625 3117.46 603.375C3137.71 613.875 3152.21 626.375 3160.96 640.875C3169.71 655.375 3174.09 673 3174.09 693.75C3174.09 733.5 3159.59 764.625 3130.59 787.125C3101.59 809.625 3061.71 820.875 3010.96 820.875ZM3267.59 990L3345.96 776.625L3347.09 839.625L3170.09 405H3246.96L3381.96 747H3357.96L3485.84 405H3560.09L3338.09 990H3267.59ZM3676.3 810L3552.55 404.625L3625.3 405L3712.3 691.125L3800.42 405H3863.8L3951.92 691.125L4039.3 405H4111.67L3987.92 810H3928.3L3832.3 510.375L3735.92 810H3676.3ZM4308.64 821.25C4268.14 821.25 4233.14 812.125 4203.64 793.875C4174.39 775.625 4151.77 750.5 4135.77 718.5C4119.77 686.25 4111.77 649.125 4111.77 607.125C4111.77 564.875 4119.89 527.75 4136.14 495.75C4152.39 463.5 4175.27 438.5 4204.77 420.75C4234.27 402.75 4268.89 393.75 4308.64 393.75C4349.14 393.75 4384.14 402.875 4413.64 421.125C4443.14 439.375 4465.89 464.5 4481.89 496.5C4497.89 528.5 4505.89 565.375 4505.89 607.125C4505.89 649.375 4497.77 686.625 4481.52 718.875C4465.52 750.875 4442.77 776 4413.27 794.25C4383.77 812.25 4348.89 821.25 4308.64 821.25ZM4308.64 751.875C4348.89 751.875 4378.77 738.5 4398.27 711.75C4418.02 684.75 4427.89 649.875 4427.89 607.125C4427.89 563.375 4417.89 528.5 4397.89 502.5C4378.14 476.25 4348.39 463.125 4308.64 463.125C4281.39 463.125 4259.02 469.25 4241.52 481.5C4224.02 493.75 4210.89 510.75 4202.14 532.5C4193.64 554 4189.39 578.875 4189.39 607.125C4189.39 651.125 4199.52 686.25 4219.77 712.5C4240.02 738.75 4269.64 751.875 4308.64 751.875ZM4558.37 810V405H4623.62V503.25L4613.87 490.5C4618.62 477.5 4624.87 465.75 4632.62 455.25C4640.62 444.5 4649.74 435.625 4659.99 428.625C4670.24 420.875 4681.74 414.875 4694.49 410.625C4707.49 406.125 4720.74 403.5 4734.24 402.75C4747.74 401.75 4760.49 402.5 4772.49 405V473.625C4758.99 470.125 4743.99 469.25 4727.49 471C4711.24 472.5 4696.24 478 4682.49 487.5C4669.49 496.25 4659.37 506.875 4652.12 519.375C4644.87 531.625 4639.74 545.25 4636.74 560.25C4633.74 575 4632.24 590.25 4632.24 606V810H4558.37ZM4813.64 810L4814.01 270H4888.26V600L5052.14 405H5145.89L4973.39 607.5L5165.01 810H5064.14L4888.26 615V810H4813.64Z" fill="black"/>
</svg>
