<svg width="5331" height="1005" viewBox="0 0 5331 1005" fill="none" xmlns="http://www.w3.org/2000/svg">
<path d="M133 375V372H130H70H67V375V735V738H70H130H133V735V375Z" fill="black" stroke="black" stroke-width="6"/>
<path d="M553 375V372H550H130H127V375V435V438H130H550H553V435V375Z" fill="black" stroke="black" stroke-width="6"/>
<path d="M613 375V372H610H550H547V375V735V738H550H610H613V735V375Z" fill="black" stroke="black" stroke-width="6"/>
<path d="M553 735V732H550H490H487V735V795V798H490H550H553V795V735Z" fill="black" stroke="black" stroke-width="6"/>
<path d="M733 795V792H730H670H667V795V915V918H670H730H733V915V795Z" fill="black" stroke="black" stroke-width="6"/>
<path d="M733 435V432H730H610H607V435V495V498H610H730H733V495V435Z" fill="black" stroke="black" stroke-width="6"/>
<path d="M673 615V612H670H610H607V615V675V678H610H670H673V675V615Z" fill="black" stroke="black" stroke-width="6"/>
<path d="M733 495V492H730H670H667V495V675V678H670H730H733V675V495Z" fill="black" stroke="black" stroke-width="6"/>
<path d="M673 915V912H670H70H67V915V975V978H70H670H673V975V915Z" fill="black" stroke="black" stroke-width="6"/>
<path d="M73 855V852H70H10H7V855V915V918H10H70H73V915V855Z" fill="black" stroke="black" stroke-width="6"/>
<path d="M553 795V792H550H190H187V795V855V858H190H550H553V855V795Z" fill="black" stroke="black" stroke-width="6"/>
<path d="M193 735V732H190H130H127V735V795V798H130H190H193V795V735Z" fill="black" stroke="black" stroke-width="6"/>
<path d="M673 795V792H670H550H547V795V855V858H550H670H673V855V795Z" fill="black" stroke="black" stroke-width="6"/>
<path d="M193 795V792H190H10H7V795V855V858H10H190H193V855V795Z" fill="black" stroke="black" stroke-width="6"/>
<path d="M253 255V252H250H190H187V255V315V318H190H250H253V315V255Z" fill="black" stroke="black" stroke-width="6"/>
<path d="M433 255V252H430H370H367V255V315V318H370H430H433V315V255Z" fill="black" stroke="black" stroke-width="6"/>
<path d="M613 255V252H610H550H547V255V315V318H550H610H613V315V255Z" fill="black" stroke="black" stroke-width="6"/>
<path d="M253 195V192H250H190H187V195V255V258H190H250H253V255V195Z" fill="black" stroke="black" stroke-width="6"/>
<path d="M433 195V192H430H370H367V195V255V258H370H430H433V255V195Z" fill="black" stroke="black" stroke-width="6"/>
<path d="M613 195V192H610H550H547V195V255V258H550H610H613V255V195Z" fill="black" stroke="black" stroke-width="6"/>
<path d="M193 135V132H190H130H127V135V195V198H130H190H193V195V135Z" fill="black" stroke="black" stroke-width="6"/>
<path d="M373 135V132H370H310H307V135V195V198H310H370H373V195V135Z" fill="black" stroke="black" stroke-width="6"/>
<path d="M553 135V132H550H490H487V135V195V198H490H550H553V195V135Z" fill="black" stroke="black" stroke-width="6"/>
<path d="M193 75V72H190H130H127V75V135V138H130H190H193V135V75Z" fill="black" stroke="black" stroke-width="6"/>
<path d="M373 75V72H370H310H307V75V135V138H310H370H373V135V75Z" fill="black" stroke="black" stroke-width="6"/>
<path d="M553 75V72H550H490H487V75V135V138H490H550H553V135V75Z" fill="black" stroke="black" stroke-width="6"/>
<path d="M253 15V12H250H190H187V15V75V78H190H250H253V75V15Z" fill="black" stroke="black" stroke-width="6"/>
<path d="M433 15V12H430H370H367V15V75V78H370H430H433V75V15Z" fill="black" stroke="black" stroke-width="6"/>
<path d="M613 15V12H610H550H547V15V75V78H550H610H613V75V15Z" fill="black" stroke="black" stroke-width="6"/>
<path d="M1247.43 836.25C1193.43 836.25 1147.05 824.5 1108.3 801C1069.55 777.25 1039.8 744.25 1019.05 702C998.302 659.75 987.927 610.75 987.927 555C987.927 499 998.302 449.875 1019.05 407.625C1039.8 365.375 1069.55 332.5 1108.3 309C1147.05 285.5 1193.43 273.75 1247.43 273.75C1301.18 273.75 1347.43 285.5 1386.18 309C1424.93 332.5 1454.68 365.375 1475.43 407.625C1496.18 449.875 1506.55 499 1506.55 555C1506.55 610.75 1496.18 659.75 1475.43 702C1454.68 744.25 1424.93 777.25 1386.18 801C1347.43 824.5 1301.18 836.25 1247.43 836.25ZM1247.43 748.125C1283.18 748.625 1312.93 740.875 1336.68 724.875C1360.43 708.875 1378.18 686.375 1389.93 657.375C1401.93 628.125 1407.93 594 1407.93 555C1407.93 516 1401.93 482.125 1389.93 453.375C1378.18 424.625 1360.43 402.25 1336.68 386.25C1312.93 370.25 1283.18 362 1247.43 361.5C1211.68 361.25 1181.93 369.125 1158.18 385.125C1134.43 401.125 1116.55 423.75 1104.55 453C1092.8 482 1086.8 516 1086.55 555C1086.55 594 1092.43 627.875 1104.18 656.625C1116.18 685.375 1134.05 707.75 1157.8 723.75C1181.8 739.75 1211.68 747.875 1247.43 748.125ZM1551.14 825L1551.89 285H1646.39V615L1791.89 420H1908.14L1753.64 622.5L1920.52 825H1797.52L1646.39 630V825H1551.14ZM1943.03 825V730.125H2037.9V825H1943.03ZM2128.37 825V285H2478.24V372.375H2221.74V501H2433.24V588.375H2221.74V737.625H2478.24V825H2128.37ZM2651.8 836.25C2622.55 836.25 2597.8 830.75 2577.55 819.75C2557.3 808.5 2541.93 793.625 2531.43 775.125C2521.18 756.625 2516.05 736.125 2516.05 713.625C2516.05 694.375 2519.18 677 2525.43 661.5C2531.93 646 2541.8 632.5 2555.05 621C2568.55 609.5 2585.93 600 2607.18 592.5C2623.43 587 2642.3 582.25 2663.8 578.25C2685.3 574 2708.93 570 2734.68 566.25C2760.43 562.5 2787.8 558.5 2816.8 554.25L2783.43 572.625C2783.43 545.875 2777.18 526.125 2764.68 513.375C2752.43 500.375 2731.55 493.875 2702.05 493.875C2684.8 493.875 2667.68 498 2650.68 506.25C2633.93 514.5 2622.18 528.75 2615.43 549L2530.68 522C2540.68 488 2559.8 460.625 2588.05 439.875C2616.3 419.125 2654.43 408.75 2702.43 408.75C2738.18 408.75 2769.8 414.5 2797.3 426C2824.8 437.5 2845.3 456.75 2858.8 483.75C2866.3 498 2870.8 512.625 2872.3 527.625C2873.8 542.375 2874.55 558.75 2874.55 576.75V825H2792.8V738.375L2805.93 753.375C2787.18 782.125 2765.8 803.125 2741.8 816.375C2717.8 829.625 2687.8 836.25 2651.8 836.25ZM2670.55 762C2690.55 762 2707.55 758.5 2721.55 751.5C2735.8 744.25 2747.05 735.75 2755.3 726C2763.8 716 2769.55 706.75 2772.55 698.25C2777.3 686.75 2780.05 673.625 2780.8 658.875C2781.55 644.125 2781.93 632 2781.93 622.5L2810.43 630.75C2782.18 635.25 2758.3 639.125 2738.8 642.375C2719.55 645.625 2703.3 648.75 2690.05 651.75C2676.8 654.5 2665.05 657.625 2654.8 661.125C2644.55 664.875 2635.93 669.25 2628.93 674.25C2621.93 679 2616.55 684.5 2612.8 690.75C2609.3 697 2607.55 704.25 2607.55 712.5C2607.55 722.25 2609.93 730.875 2614.68 738.375C2619.68 745.875 2626.8 751.75 2636.05 756C2645.55 760 2657.05 762 2670.55 762ZM3099.27 836.25C3048.77 836.25 3007.9 825 2976.65 802.5C2945.4 779.75 2926.4 747.75 2919.65 706.5L3014.9 691.875C3019.4 711.625 3029.65 727.125 3045.65 738.375C3061.65 749.625 3081.65 755.25 3105.65 755.25C3126.4 755.25 3142.52 751.25 3154.02 743.25C3165.52 735 3171.27 723.625 3171.27 709.125C3171.27 700.125 3169.15 693 3164.9 687.75C3160.65 682.25 3151.27 677 3136.77 672C3122.27 666.75 3099.9 660.125 3069.65 652.125C3035.9 643.375 3009.02 633.75 2989.02 623.25C2969.02 612.75 2954.65 600.375 2945.9 586.125C2937.4 571.875 2933.15 554.5 2933.15 534C2933.15 508.5 2939.65 486.375 2952.65 467.625C2965.9 448.875 2984.4 434.375 3008.15 424.125C3032.15 413.875 3060.4 408.75 3092.9 408.75C3124.4 408.75 3152.27 413.625 3176.52 423.375C3201.02 433.125 3220.77 447 3235.77 465C3251.02 483 3260.27 504.125 3263.52 528.375L3168.27 545.625C3166.27 528.875 3158.77 515.625 3145.77 505.875C3133.02 496.125 3115.9 490.625 3094.4 489.375C3073.9 488.375 3057.27 491.5 3044.52 498.75C3032.02 506 3025.77 516.125 3025.77 529.125C3025.77 536.875 3028.27 543.375 3033.27 548.625C3038.52 553.875 3049.02 559.25 3064.77 564.75C3080.52 570 3104.15 576.625 3135.65 584.625C3167.65 592.875 3193.15 602.375 3212.15 613.125C3231.4 623.625 3245.27 636.25 3253.77 651C3262.52 665.75 3266.9 683.625 3266.9 704.625C3266.9 745.625 3252.02 777.875 3222.27 801.375C3192.52 824.625 3151.52 836.25 3099.27 836.25ZM3357.6 1005L3435.6 790.875L3437.1 853.875L3260.85 420H3357.6L3480.97 737.625H3456.97L3578.1 420H3671.47L3444.6 1005H3357.6ZM3782.12 825L3658.37 419.25L3749.87 420L3827.49 675L3906.24 420H3984.62L4063.37 675L4140.99 420H4232.49L4108.74 825H4036.37L3945.24 550.125L3854.49 825H3782.12ZM4435.47 836.25C4394.72 836.25 4359.09 827.125 4328.59 808.875C4298.34 790.625 4274.84 765.5 4258.09 733.5C4241.34 701.25 4232.97 664.25 4232.97 622.5C4232.97 580.25 4241.47 543.125 4258.47 511.125C4275.72 478.875 4299.47 453.75 4329.72 435.75C4360.22 417.75 4395.47 408.75 4435.47 408.75C4475.97 408.75 4511.47 417.875 4541.97 436.125C4572.47 454.375 4596.09 479.625 4612.84 511.875C4629.84 543.875 4638.34 580.75 4638.34 622.5C4638.34 664.5 4629.84 701.625 4612.84 733.875C4595.84 765.875 4572.09 791 4541.59 809.25C4511.09 827.25 4475.72 836.25 4435.47 836.25ZM4435.47 748.875C4470.47 748.875 4496.59 737.125 4513.84 713.625C4531.09 689.875 4539.72 659.5 4539.72 622.5C4539.72 584 4530.97 553.375 4513.47 530.625C4495.97 507.625 4469.97 496.125 4435.47 496.125C4411.72 496.125 4392.09 501.5 4376.59 512.25C4361.34 522.75 4349.97 537.5 4342.47 556.5C4335.22 575.5 4331.59 597.5 4331.59 622.5C4331.59 661 4340.34 691.75 4357.84 714.75C4375.59 737.5 4401.47 748.875 4435.47 748.875ZM4690.55 825V420H4773.05V518.625L4763.3 505.875C4768.3 492.375 4775.05 480 4783.55 468.75C4792.05 457.5 4802.3 448.125 4814.3 440.625C4824.05 434.125 4834.93 429.125 4846.93 425.625C4858.93 421.875 4871.18 419.625 4883.68 418.875C4896.43 417.875 4908.93 418.25 4921.18 420V507C4909.18 503.5 4895.43 502.375 4879.93 503.625C4864.68 504.875 4850.8 509 4838.3 516C4826.05 522.5 4815.93 530.875 4807.93 541.125C4799.93 551.125 4793.93 562.75 4789.93 576C4786.18 589 4784.3 603.25 4784.3 618.75V825H4690.55ZM4961.56 825L4962.31 285H5056.81V615L5202.31 420H5318.56L5164.06 622.5L5330.94 825H5207.94L5056.81 630V825H4961.56Z" fill="black"/>
</svg>
