<svg width="1920" height="1920" viewBox="0 0 1920 1920" fill="none" xmlns="http://www.w3.org/2000/svg">
<path d="M498 729H383V1422H498V729Z" fill="#F4CFC6"/>
<path d="M1306 729H498V844H1306V729Z" fill="#F4CFC6"/>
<path d="M1422 729H1306V1422H1422V729Z" fill="#F4CFC6"/>
<path d="M1307 1422H1191V1537H1307V1422Z" fill="#F4CFC6"/>
<path d="M1653 1537H1537V1769H1653V1537Z" fill="#F4CFC6"/>
<path d="M1653 844H1422V960H1653V844Z" fill="#F4CFC6"/>
<path d="M1537 1191H1422V1307H1537V1191Z" fill="#F4CFC6"/>
<path d="M1653 960H1537V1307H1653V960Z" fill="#F4CFC6"/>
<path d="M1537 1769H383V1884H1537V1769Z" fill="#F4CFC6"/>
<path d="M383 1653H267V1769H383V1653Z" fill="#F4CFC6"/>
<path d="M1306 1537H613V1653H1306V1537Z" fill="#F4CFC6"/>
<path d="M614 1422H498V1537H614V1422Z" fill="#F4CFC6"/>
<path d="M1537 1537H1306V1653H1537V1537Z" fill="#F4CFC6"/>
<path d="M613 1537H267V1653H613V1537Z" fill="#F4CFC6"/>
<path d="M729 498H613V614H729V498Z" fill="#F4CFC6"/>
<path d="M1076 498H960V614H1076V498Z" fill="#F4CFC6"/>
<path d="M1422 498H1306V614H1422V498Z" fill="#F4CFC6"/>
<path d="M729 383H613V498H729V383Z" fill="#F4CFC6"/>
<path d="M1076 383H960V498H1076V383Z" fill="#F4CFC6"/>
<path d="M1422 383H1306V498H1422V383Z" fill="#F4CFC6"/>
<path d="M614 267H498V383H614V267Z" fill="#F4CFC6"/>
<path d="M960 267H844V383H960V267Z" fill="#F4CFC6"/>
<path d="M1307 267H1191V383H1307V267Z" fill="#F4CFC6"/>
<path d="M614 151H498V267H614V151Z" fill="#F4CFC6"/>
<path d="M960 151H844V267H960V151Z" fill="#F4CFC6"/>
<path d="M1307 151H1191V267H1307V151Z" fill="#F4CFC6"/>
<path d="M729 36H613V151H729V36Z" fill="#F4CFC6"/>
<path d="M1076 36H960V151H1076V36Z" fill="#F4CFC6"/>
<path d="M1422 36H1306V151H1422V36Z" fill="#F4CFC6"/>
</svg>
